<mxfile host="Electron" modified="2024-04-26T18:10:48.757Z" agent="Mozilla/5.0 (Windows NT 10.0; Win64; x64) AppleWebKit/537.36 (KHTML, like Gecko) draw.io/23.1.5 Chrome/120.0.6099.109 Electron/28.1.0 Safari/537.36" etag="OJM9yaWO2RIlcbpqxLuJ" version="23.1.5" type="device">
  <diagram id="-6H5wynXqOOyBtFPYk5a" name="Page-1">
    <mxGraphModel dx="3864" dy="881" grid="1" gridSize="10" guides="1" tooltips="1" connect="1" arrows="1" fold="1" page="1" pageScale="1" pageWidth="1169" pageHeight="827" background="#ffffff" math="0" shadow="0">
      <root>
        <mxCell id="0" />
        <mxCell id="1" parent="0" />
        <mxCell id="f7I9c9mgRk5Hl_R-Q4D1-170" value="" style="group" parent="1" vertex="1" connectable="0">
          <mxGeometry x="1470" y="160" width="742.5" height="120" as="geometry" />
        </mxCell>
        <mxCell id="LO3xSl4bQVELb0Q1iKYm-67" value="" style="rounded=0;whiteSpace=wrap;html=1;strokeColor=#000000;strokeWidth=2;" parent="f7I9c9mgRk5Hl_R-Q4D1-170" vertex="1">
          <mxGeometry width="737.5" height="120" as="geometry" />
        </mxCell>
        <mxCell id="LO3xSl4bQVELb0Q1iKYm-55" value="" style="shape=callout;whiteSpace=wrap;html=1;perimeter=calloutPerimeter;size=20;position=0.5;base=10;strokeWidth=2;" parent="f7I9c9mgRk5Hl_R-Q4D1-170" vertex="1">
          <mxGeometry x="127.5" y="17.5" width="50" height="32.5" as="geometry" />
        </mxCell>
        <mxCell id="LO3xSl4bQVELb0Q1iKYm-56" value="An edit being conceived" style="text;html=1;align=center;verticalAlign=middle;resizable=0;points=[];autosize=1;strokeWidth=2;" parent="f7I9c9mgRk5Hl_R-Q4D1-170" vertex="1">
          <mxGeometry x="197.5" y="16.25" width="140" height="20" as="geometry" />
        </mxCell>
        <mxCell id="LO3xSl4bQVELb0Q1iKYm-65" value="An edit being transmitted" style="text;html=1;align=center;verticalAlign=middle;resizable=0;points=[];autosize=1;strokeWidth=2;" parent="f7I9c9mgRk5Hl_R-Q4D1-170" vertex="1">
          <mxGeometry x="452.5" y="16.25" width="150" height="20" as="geometry" />
        </mxCell>
        <mxCell id="f7I9c9mgRk5Hl_R-Q4D1-108" value="" style="endArrow=classic;html=1;exitX=0;exitY=0;exitDx=40;exitDy=40;exitPerimeter=0;strokeWidth=2;" parent="f7I9c9mgRk5Hl_R-Q4D1-170" edge="1">
          <mxGeometry x="82.5" width="50" height="50" as="geometry">
            <mxPoint x="397.5" y="26.25" as="sourcePoint" />
            <mxPoint x="437.5" y="26.25" as="targetPoint" />
          </mxGeometry>
        </mxCell>
        <mxCell id="f7I9c9mgRk5Hl_R-Q4D1-166" value="" style="whiteSpace=wrap;html=1;fillColor=#dae8fc;strokeColor=#6c8ebf;strokeWidth=2;" parent="f7I9c9mgRk5Hl_R-Q4D1-170" vertex="1">
          <mxGeometry x="17.5" y="65.625" width="47.5" height="8.75" as="geometry" />
        </mxCell>
        <mxCell id="f7I9c9mgRk5Hl_R-Q4D1-167" value="The span of the collaboration window that includes the deletion edit" style="text;html=1;align=left;verticalAlign=middle;resizable=0;points=[];autosize=1;strokeWidth=2;labelPosition=center;verticalLabelPosition=middle;" parent="f7I9c9mgRk5Hl_R-Q4D1-170" vertex="1">
          <mxGeometry x="82.5" y="60" width="370" height="20" as="geometry" />
        </mxCell>
        <mxCell id="f7I9c9mgRk5Hl_R-Q4D1-168" value="" style="whiteSpace=wrap;html=1;fillColor=#8A9FBF;strokeColor=#6c8ebf;strokeWidth=2;" parent="f7I9c9mgRk5Hl_R-Q4D1-170" vertex="1">
          <mxGeometry x="17.5" y="95.625" width="47.5" height="8.75" as="geometry" />
        </mxCell>
        <mxCell id="f7I9c9mgRk5Hl_R-Q4D1-169" value="The span of the collaboration window that includes the last edit in the collaboration window that includes the deletion edit" style="text;html=1;align=left;verticalAlign=middle;resizable=0;points=[];autosize=1;strokeWidth=2;labelPosition=center;verticalLabelPosition=middle;" parent="f7I9c9mgRk5Hl_R-Q4D1-170" vertex="1">
          <mxGeometry x="82.5" y="90" width="660" height="20" as="geometry" />
        </mxCell>
        <mxCell id="ug50JPKoQ96zgBhktdCE-21" value="&lt;div&gt;Alice&lt;/div&gt;" style="shape=umlActor;verticalLabelPosition=bottom;verticalAlign=top;html=1;outlineConnect=0;strokeWidth=2;" vertex="1" parent="1">
          <mxGeometry x="-1747.5" y="810" width="30" height="60" as="geometry" />
        </mxCell>
        <mxCell id="ug50JPKoQ96zgBhktdCE-22" value="&lt;div&gt;Bob&lt;/div&gt;" style="shape=umlActor;verticalLabelPosition=bottom;verticalAlign=top;html=1;outlineConnect=0;strokeWidth=2;" vertex="1" parent="1">
          <mxGeometry x="-1747.5" y="1050" width="30" height="60" as="geometry" />
        </mxCell>
        <mxCell id="ug50JPKoQ96zgBhktdCE-23" value="Service" style="ellipse;shape=cloud;whiteSpace=wrap;html=1;strokeWidth=2;" vertex="1" parent="1">
          <mxGeometry x="-1770" y="930" width="70" height="60" as="geometry" />
        </mxCell>
        <mxCell id="ug50JPKoQ96zgBhktdCE-24" value="" style="endArrow=none;html=1;exitX=0.875;exitY=0.5;exitDx=0;exitDy=0;exitPerimeter=0;strokeWidth=2;" edge="1" parent="1">
          <mxGeometry width="50" height="50" relative="1" as="geometry">
            <mxPoint x="-1697.5" y="839" as="sourcePoint" />
            <mxPoint x="-755" y="839" as="targetPoint" />
          </mxGeometry>
        </mxCell>
        <mxCell id="ug50JPKoQ96zgBhktdCE-25" value="" style="endArrow=none;html=1;exitX=0.875;exitY=0.5;exitDx=0;exitDy=0;exitPerimeter=0;strokeWidth=2;" edge="1" parent="1">
          <mxGeometry width="50" height="50" relative="1" as="geometry">
            <mxPoint x="-1702.5" y="959.5" as="sourcePoint" />
            <mxPoint x="-760" y="959.5" as="targetPoint" />
          </mxGeometry>
        </mxCell>
        <mxCell id="ug50JPKoQ96zgBhktdCE-26" value="Set color to red" style="shape=callout;whiteSpace=wrap;html=1;perimeter=calloutPerimeter;size=20;position=0.5;base=10;strokeWidth=2;fillColor=#f8cecc;strokeColor=#b85450;" vertex="1" parent="1">
          <mxGeometry x="-1670" y="800" width="90" height="40" as="geometry" />
        </mxCell>
        <mxCell id="ug50JPKoQ96zgBhktdCE-27" value="" style="endArrow=none;html=1;exitX=0.875;exitY=0.5;exitDx=0;exitDy=0;exitPerimeter=0;strokeWidth=2;" edge="1" parent="1">
          <mxGeometry width="50" height="50" relative="1" as="geometry">
            <mxPoint x="-1702.5" y="1079.5" as="sourcePoint" />
            <mxPoint x="-760" y="1079.5" as="targetPoint" />
          </mxGeometry>
        </mxCell>
        <mxCell id="ug50JPKoQ96zgBhktdCE-28" value="" style="shape=callout;whiteSpace=wrap;html=1;perimeter=calloutPerimeter;size=20;position=0.5;base=10;strokeWidth=2;rotation=-180;flipH=1;fillColor=#d5e8d4;strokeColor=#82b366;" vertex="1" parent="1">
          <mxGeometry x="-1590" y="1080" width="80" height="40" as="geometry" />
        </mxCell>
        <mxCell id="ug50JPKoQ96zgBhktdCE-29" value="Edit" style="text;html=1;align=center;verticalAlign=middle;resizable=0;points=[];autosize=1;strokeWidth=2;" vertex="1" parent="1">
          <mxGeometry x="-1570" y="1100" width="40" height="20" as="geometry" />
        </mxCell>
        <mxCell id="ug50JPKoQ96zgBhktdCE-30" value="Undo" style="shape=callout;whiteSpace=wrap;html=1;perimeter=calloutPerimeter;size=20;position=0.5;base=10;strokeWidth=2;fillColor=#ffe6cc;strokeColor=#d79b00;" vertex="1" parent="1">
          <mxGeometry x="-1390" y="800" width="80" height="40" as="geometry" />
        </mxCell>
        <mxCell id="ug50JPKoQ96zgBhktdCE-31" value="" style="endArrow=classic;html=1;exitX=0;exitY=0;exitDx=40;exitDy=40;exitPerimeter=0;fillColor=#ffe6cc;strokeColor=#d79b00;strokeWidth=2;" edge="1" parent="1">
          <mxGeometry width="50" height="50" relative="1" as="geometry">
            <mxPoint x="-1350" y="840" as="sourcePoint" />
            <mxPoint x="-1230" y="960" as="targetPoint" />
          </mxGeometry>
        </mxCell>
        <mxCell id="ug50JPKoQ96zgBhktdCE-32" value="" style="endArrow=classic;html=1;fillColor=#ffe6cc;strokeColor=#d79b00;strokeWidth=2;" edge="1" parent="1">
          <mxGeometry width="50" height="50" relative="1" as="geometry">
            <mxPoint x="-1230" y="960" as="sourcePoint" />
            <mxPoint x="-1110" y="840" as="targetPoint" />
          </mxGeometry>
        </mxCell>
        <mxCell id="ug50JPKoQ96zgBhktdCE-33" value="" style="endArrow=classic;html=1;exitX=0;exitY=0;exitDx=40;exitDy=40;exitPerimeter=0;fillColor=#ffe6cc;strokeColor=#d79b00;strokeWidth=2;" edge="1" parent="1">
          <mxGeometry width="50" height="50" relative="1" as="geometry">
            <mxPoint x="-1230" y="960" as="sourcePoint" />
            <mxPoint x="-1110" y="1080" as="targetPoint" />
          </mxGeometry>
        </mxCell>
        <mxCell id="ug50JPKoQ96zgBhktdCE-34" value="" style="endArrow=classic;html=1;exitX=0;exitY=0;exitDx=40;exitDy=40;exitPerimeter=0;fillColor=#f8cecc;strokeColor=#b85450;strokeWidth=2;" edge="1" parent="1">
          <mxGeometry width="50" height="50" relative="1" as="geometry">
            <mxPoint x="-1630" y="840" as="sourcePoint" />
            <mxPoint x="-1510" y="960" as="targetPoint" />
          </mxGeometry>
        </mxCell>
        <mxCell id="ug50JPKoQ96zgBhktdCE-35" value="" style="endArrow=classic;html=1;fillColor=#f8cecc;strokeColor=#b85450;strokeWidth=2;" edge="1" parent="1">
          <mxGeometry width="50" height="50" relative="1" as="geometry">
            <mxPoint x="-1510" y="960" as="sourcePoint" />
            <mxPoint x="-1390" y="840" as="targetPoint" />
          </mxGeometry>
        </mxCell>
        <mxCell id="ug50JPKoQ96zgBhktdCE-36" value="" style="endArrow=classic;html=1;exitX=0;exitY=0;exitDx=40;exitDy=40;exitPerimeter=0;fillColor=#f8cecc;strokeColor=#b85450;strokeWidth=2;" edge="1" parent="1">
          <mxGeometry width="50" height="50" relative="1" as="geometry">
            <mxPoint x="-1510" y="960" as="sourcePoint" />
            <mxPoint x="-1390" y="1080" as="targetPoint" />
          </mxGeometry>
        </mxCell>
        <mxCell id="ug50JPKoQ96zgBhktdCE-37" value="" style="endArrow=classic;html=1;fillColor=#d5e8d4;strokeColor=#82b366;strokeWidth=2;" edge="1" parent="1">
          <mxGeometry width="50" height="50" relative="1" as="geometry">
            <mxPoint x="-1550" y="1080" as="sourcePoint" />
            <mxPoint x="-1430" y="960" as="targetPoint" />
          </mxGeometry>
        </mxCell>
        <mxCell id="ug50JPKoQ96zgBhktdCE-38" value="" style="endArrow=classic;html=1;fillColor=#d5e8d4;strokeColor=#82b366;strokeWidth=2;" edge="1" parent="1">
          <mxGeometry width="50" height="50" relative="1" as="geometry">
            <mxPoint x="-1430" y="960" as="sourcePoint" />
            <mxPoint x="-1310" y="840" as="targetPoint" />
          </mxGeometry>
        </mxCell>
        <mxCell id="ug50JPKoQ96zgBhktdCE-39" value="" style="endArrow=classic;html=1;exitX=0;exitY=0;exitDx=40;exitDy=40;exitPerimeter=0;fillColor=#d5e8d4;strokeColor=#82b366;strokeWidth=2;" edge="1" parent="1">
          <mxGeometry width="50" height="50" relative="1" as="geometry">
            <mxPoint x="-1430" y="960" as="sourcePoint" />
            <mxPoint x="-1310" y="1080" as="targetPoint" />
          </mxGeometry>
        </mxCell>
        <mxCell id="f7I9c9mgRk5Hl_R-Q4D1-76" value="&lt;div&gt;Alice&lt;/div&gt;" style="shape=umlActor;verticalLabelPosition=bottom;verticalAlign=top;html=1;outlineConnect=0;strokeWidth=2;" parent="1" vertex="1">
          <mxGeometry x="92.5" y="50" width="30" height="60" as="geometry" />
        </mxCell>
        <mxCell id="f7I9c9mgRk5Hl_R-Q4D1-77" value="&lt;div&gt;Bob&lt;/div&gt;" style="shape=umlActor;verticalLabelPosition=bottom;verticalAlign=top;html=1;outlineConnect=0;strokeWidth=2;" parent="1" vertex="1">
          <mxGeometry x="92.5" y="290" width="30" height="60" as="geometry" />
        </mxCell>
        <mxCell id="f7I9c9mgRk5Hl_R-Q4D1-78" value="Service" style="ellipse;shape=cloud;whiteSpace=wrap;html=1;strokeWidth=2;" parent="1" vertex="1">
          <mxGeometry x="70" y="170" width="70" height="60" as="geometry" />
        </mxCell>
        <mxCell id="f7I9c9mgRk5Hl_R-Q4D1-79" value="" style="endArrow=none;html=1;exitX=0.875;exitY=0.5;exitDx=0;exitDy=0;exitPerimeter=0;strokeWidth=2;" parent="1" edge="1">
          <mxGeometry width="50" height="50" relative="1" as="geometry">
            <mxPoint x="142.5" y="79" as="sourcePoint" />
            <mxPoint x="760" y="80" as="targetPoint" />
          </mxGeometry>
        </mxCell>
        <mxCell id="f7I9c9mgRk5Hl_R-Q4D1-80" value="" style="endArrow=none;html=1;exitX=0.875;exitY=0.5;exitDx=0;exitDy=0;exitPerimeter=0;strokeWidth=2;" parent="1" edge="1">
          <mxGeometry width="50" height="50" relative="1" as="geometry">
            <mxPoint x="137.5" y="199.5" as="sourcePoint" />
            <mxPoint x="760" y="200" as="targetPoint" />
          </mxGeometry>
        </mxCell>
        <mxCell id="f7I9c9mgRk5Hl_R-Q4D1-81" value="Set color to red" style="shape=callout;whiteSpace=wrap;html=1;perimeter=calloutPerimeter;size=20;position=0.5;base=10;strokeWidth=2;fillColor=#f8cecc;strokeColor=#b85450;" parent="1" vertex="1">
          <mxGeometry x="156" y="40" width="90" height="40" as="geometry" />
        </mxCell>
        <mxCell id="f7I9c9mgRk5Hl_R-Q4D1-82" value="" style="endArrow=none;html=1;exitX=0.875;exitY=0.5;exitDx=0;exitDy=0;exitPerimeter=0;strokeWidth=2;" parent="1" edge="1">
          <mxGeometry width="50" height="50" relative="1" as="geometry">
            <mxPoint x="137.5" y="319.5" as="sourcePoint" />
            <mxPoint x="760" y="320" as="targetPoint" />
          </mxGeometry>
        </mxCell>
        <mxCell id="f7I9c9mgRk5Hl_R-Q4D1-90" value="" style="endArrow=classic;html=1;exitX=0;exitY=0;exitDx=40;exitDy=40;exitPerimeter=0;fillColor=#f8cecc;strokeColor=#b85450;strokeWidth=2;" parent="1" edge="1">
          <mxGeometry width="50" height="50" relative="1" as="geometry">
            <mxPoint x="200" y="80" as="sourcePoint" />
            <mxPoint x="320" y="200" as="targetPoint" />
          </mxGeometry>
        </mxCell>
        <mxCell id="ug50JPKoQ96zgBhktdCE-40" value="" style="endArrow=classic;html=1;exitX=0;exitY=0;exitDx=40;exitDy=40;exitPerimeter=0;fillColor=#f8cecc;strokeColor=#b85450;strokeWidth=2;" edge="1" parent="1">
          <mxGeometry width="50" height="50" relative="1" as="geometry">
            <mxPoint x="320" y="200" as="sourcePoint" />
            <mxPoint x="440" y="320" as="targetPoint" />
          </mxGeometry>
        </mxCell>
        <mxCell id="ug50JPKoQ96zgBhktdCE-42" value="&lt;div&gt;Alice&lt;/div&gt;" style="shape=umlActor;verticalLabelPosition=bottom;verticalAlign=top;html=1;outlineConnect=0;strokeWidth=2;" vertex="1" parent="1">
          <mxGeometry x="92.5" y="450" width="30" height="60" as="geometry" />
        </mxCell>
        <mxCell id="ug50JPKoQ96zgBhktdCE-43" value="&lt;div&gt;Bob&lt;/div&gt;" style="shape=umlActor;verticalLabelPosition=bottom;verticalAlign=top;html=1;outlineConnect=0;strokeWidth=2;" vertex="1" parent="1">
          <mxGeometry x="92.5" y="690" width="30" height="60" as="geometry" />
        </mxCell>
        <mxCell id="ug50JPKoQ96zgBhktdCE-44" value="Service" style="ellipse;shape=cloud;whiteSpace=wrap;html=1;strokeWidth=2;" vertex="1" parent="1">
          <mxGeometry x="70" y="570" width="70" height="60" as="geometry" />
        </mxCell>
        <mxCell id="ug50JPKoQ96zgBhktdCE-45" value="" style="endArrow=none;html=1;exitX=0.875;exitY=0.5;exitDx=0;exitDy=0;exitPerimeter=0;strokeWidth=2;" edge="1" parent="1">
          <mxGeometry width="50" height="50" relative="1" as="geometry">
            <mxPoint x="142.5" y="479" as="sourcePoint" />
            <mxPoint x="760" y="480" as="targetPoint" />
          </mxGeometry>
        </mxCell>
        <mxCell id="ug50JPKoQ96zgBhktdCE-46" value="" style="endArrow=none;html=1;exitX=0.875;exitY=0.5;exitDx=0;exitDy=0;exitPerimeter=0;strokeWidth=2;" edge="1" parent="1">
          <mxGeometry width="50" height="50" relative="1" as="geometry">
            <mxPoint x="137.5" y="599.5" as="sourcePoint" />
            <mxPoint x="760" y="600" as="targetPoint" />
          </mxGeometry>
        </mxCell>
        <mxCell id="ug50JPKoQ96zgBhktdCE-47" value="Set color to red" style="shape=callout;whiteSpace=wrap;html=1;perimeter=calloutPerimeter;size=20;position=0.5;base=10;strokeWidth=2;fillColor=#f8cecc;strokeColor=#b85450;" vertex="1" parent="1">
          <mxGeometry x="156" y="440" width="90" height="40" as="geometry" />
        </mxCell>
        <mxCell id="ug50JPKoQ96zgBhktdCE-48" value="" style="endArrow=none;html=1;exitX=0.875;exitY=0.5;exitDx=0;exitDy=0;exitPerimeter=0;strokeWidth=2;" edge="1" parent="1">
          <mxGeometry width="50" height="50" relative="1" as="geometry">
            <mxPoint x="137.5" y="719.5" as="sourcePoint" />
            <mxPoint x="760" y="720" as="targetPoint" />
          </mxGeometry>
        </mxCell>
        <mxCell id="ug50JPKoQ96zgBhktdCE-49" value="" style="endArrow=classic;html=1;exitX=0;exitY=0;exitDx=40;exitDy=40;exitPerimeter=0;fillColor=#f8cecc;strokeColor=#b85450;strokeWidth=2;" edge="1" parent="1">
          <mxGeometry width="50" height="50" relative="1" as="geometry">
            <mxPoint x="200" y="480" as="sourcePoint" />
            <mxPoint x="320" y="600" as="targetPoint" />
          </mxGeometry>
        </mxCell>
        <mxCell id="ug50JPKoQ96zgBhktdCE-50" value="" style="endArrow=classic;html=1;exitX=0;exitY=0;exitDx=40;exitDy=40;exitPerimeter=0;fillColor=#f8cecc;strokeColor=#b85450;strokeWidth=2;" edge="1" parent="1">
          <mxGeometry width="50" height="50" relative="1" as="geometry">
            <mxPoint x="320" y="600" as="sourcePoint" />
            <mxPoint x="440" y="720" as="targetPoint" />
          </mxGeometry>
        </mxCell>
        <mxCell id="ug50JPKoQ96zgBhktdCE-56" value="" style="endArrow=classic;html=1;fillColor=#dae8fc;strokeColor=#6c8ebf;strokeWidth=2;" edge="1" parent="1">
          <mxGeometry width="50" height="50" relative="1" as="geometry">
            <mxPoint x="480" y="720" as="sourcePoint" />
            <mxPoint x="600" y="600" as="targetPoint" />
          </mxGeometry>
        </mxCell>
        <mxCell id="ug50JPKoQ96zgBhktdCE-57" value="" style="endArrow=classic;html=1;fillColor=#dae8fc;strokeColor=#6c8ebf;strokeWidth=2;" edge="1" parent="1">
          <mxGeometry width="50" height="50" relative="1" as="geometry">
            <mxPoint x="600" y="600" as="sourcePoint" />
            <mxPoint x="720" y="480" as="targetPoint" />
          </mxGeometry>
        </mxCell>
        <mxCell id="ug50JPKoQ96zgBhktdCE-54" value="" style="shape=callout;whiteSpace=wrap;html=1;perimeter=calloutPerimeter;size=20;position=0.5;base=10;strokeWidth=2;rotation=-180;flipH=1;fillColor=#dae8fc;strokeColor=#6c8ebf;" vertex="1" parent="1">
          <mxGeometry x="431" y="720" width="100" height="40" as="geometry" />
        </mxCell>
        <mxCell id="ug50JPKoQ96zgBhktdCE-55" value="Set color to blue" style="text;html=1;align=center;verticalAlign=middle;resizable=0;points=[];autosize=1;strokeWidth=2;" vertex="1" parent="1">
          <mxGeometry x="426" y="735" width="110" height="30" as="geometry" />
        </mxCell>
        <mxCell id="ug50JPKoQ96zgBhktdCE-60" value="&lt;div&gt;Alice&lt;/div&gt;" style="shape=umlActor;verticalLabelPosition=bottom;verticalAlign=top;html=1;outlineConnect=0;strokeWidth=2;" vertex="1" parent="1">
          <mxGeometry x="92.5" y="850" width="30" height="60" as="geometry" />
        </mxCell>
        <mxCell id="ug50JPKoQ96zgBhktdCE-61" value="&lt;div&gt;Bob&lt;/div&gt;" style="shape=umlActor;verticalLabelPosition=bottom;verticalAlign=top;html=1;outlineConnect=0;strokeWidth=2;" vertex="1" parent="1">
          <mxGeometry x="92.5" y="1090" width="30" height="60" as="geometry" />
        </mxCell>
        <mxCell id="ug50JPKoQ96zgBhktdCE-62" value="Service" style="ellipse;shape=cloud;whiteSpace=wrap;html=1;strokeWidth=2;" vertex="1" parent="1">
          <mxGeometry x="70" y="970" width="70" height="60" as="geometry" />
        </mxCell>
        <mxCell id="ug50JPKoQ96zgBhktdCE-63" value="" style="endArrow=none;html=1;exitX=0.875;exitY=0.5;exitDx=0;exitDy=0;exitPerimeter=0;strokeWidth=2;" edge="1" parent="1">
          <mxGeometry width="50" height="50" relative="1" as="geometry">
            <mxPoint x="142.5" y="879" as="sourcePoint" />
            <mxPoint x="760" y="880" as="targetPoint" />
          </mxGeometry>
        </mxCell>
        <mxCell id="ug50JPKoQ96zgBhktdCE-64" value="" style="endArrow=none;html=1;exitX=0.875;exitY=0.5;exitDx=0;exitDy=0;exitPerimeter=0;strokeWidth=2;" edge="1" parent="1">
          <mxGeometry width="50" height="50" relative="1" as="geometry">
            <mxPoint x="137.5" y="999.5" as="sourcePoint" />
            <mxPoint x="760" y="1000" as="targetPoint" />
          </mxGeometry>
        </mxCell>
        <mxCell id="ug50JPKoQ96zgBhktdCE-65" value="Set color to red" style="shape=callout;whiteSpace=wrap;html=1;perimeter=calloutPerimeter;size=20;position=0.5;base=10;strokeWidth=2;fillColor=#f8cecc;strokeColor=#b85450;" vertex="1" parent="1">
          <mxGeometry x="156" y="840" width="90" height="40" as="geometry" />
        </mxCell>
        <mxCell id="ug50JPKoQ96zgBhktdCE-66" value="" style="endArrow=none;html=1;exitX=0.875;exitY=0.5;exitDx=0;exitDy=0;exitPerimeter=0;strokeWidth=2;" edge="1" parent="1">
          <mxGeometry width="50" height="50" relative="1" as="geometry">
            <mxPoint x="137.5" y="1119.5" as="sourcePoint" />
            <mxPoint x="760" y="1120" as="targetPoint" />
          </mxGeometry>
        </mxCell>
        <mxCell id="ug50JPKoQ96zgBhktdCE-67" value="" style="endArrow=classic;html=1;exitX=0;exitY=0;exitDx=40;exitDy=40;exitPerimeter=0;fillColor=#f8cecc;strokeColor=#b85450;strokeWidth=2;" edge="1" parent="1">
          <mxGeometry width="50" height="50" relative="1" as="geometry">
            <mxPoint x="200" y="880" as="sourcePoint" />
            <mxPoint x="320" y="1000" as="targetPoint" />
          </mxGeometry>
        </mxCell>
        <mxCell id="ug50JPKoQ96zgBhktdCE-68" value="" style="endArrow=classic;html=1;exitX=0;exitY=0;exitDx=40;exitDy=40;exitPerimeter=0;fillColor=#f8cecc;strokeColor=#b85450;strokeWidth=2;" edge="1" parent="1">
          <mxGeometry width="50" height="50" relative="1" as="geometry">
            <mxPoint x="320" y="1000" as="sourcePoint" />
            <mxPoint x="440" y="1120" as="targetPoint" />
          </mxGeometry>
        </mxCell>
        <mxCell id="ug50JPKoQ96zgBhktdCE-69" value="" style="endArrow=classic;html=1;fillColor=#dae8fc;strokeColor=#6c8ebf;strokeWidth=2;" edge="1" parent="1">
          <mxGeometry width="50" height="50" relative="1" as="geometry">
            <mxPoint x="280" y="1120" as="sourcePoint" />
            <mxPoint x="400" y="1000" as="targetPoint" />
          </mxGeometry>
        </mxCell>
        <mxCell id="ug50JPKoQ96zgBhktdCE-70" value="" style="endArrow=classic;html=1;fillColor=#dae8fc;strokeColor=#6c8ebf;strokeWidth=2;" edge="1" parent="1">
          <mxGeometry width="50" height="50" relative="1" as="geometry">
            <mxPoint x="400" y="1000" as="sourcePoint" />
            <mxPoint x="520" y="880" as="targetPoint" />
          </mxGeometry>
        </mxCell>
        <mxCell id="ug50JPKoQ96zgBhktdCE-71" value="" style="shape=callout;whiteSpace=wrap;html=1;perimeter=calloutPerimeter;size=20;position=0.5;base=10;strokeWidth=2;rotation=-180;flipH=1;fillColor=#dae8fc;strokeColor=#6c8ebf;" vertex="1" parent="1">
          <mxGeometry x="231" y="1120" width="100" height="40" as="geometry" />
        </mxCell>
        <mxCell id="ug50JPKoQ96zgBhktdCE-72" value="Set color to blue" style="text;html=1;align=center;verticalAlign=middle;resizable=0;points=[];autosize=1;strokeWidth=2;" vertex="1" parent="1">
          <mxGeometry x="226" y="1135" width="110" height="30" as="geometry" />
        </mxCell>
        <mxCell id="ug50JPKoQ96zgBhktdCE-73" value="" style="endArrow=classic;html=1;fillColor=#f8cecc;strokeColor=#b85450;strokeWidth=2;" edge="1" parent="1">
          <mxGeometry width="50" height="50" relative="1" as="geometry">
            <mxPoint x="320" y="200" as="sourcePoint" />
            <mxPoint x="440" y="80" as="targetPoint" />
          </mxGeometry>
        </mxCell>
        <mxCell id="ug50JPKoQ96zgBhktdCE-74" value="" style="endArrow=classic;html=1;fillColor=#f8cecc;strokeColor=#b85450;strokeWidth=2;" edge="1" parent="1">
          <mxGeometry width="50" height="50" relative="1" as="geometry">
            <mxPoint x="320" y="600" as="sourcePoint" />
            <mxPoint x="440" y="480" as="targetPoint" />
          </mxGeometry>
        </mxCell>
        <mxCell id="ug50JPKoQ96zgBhktdCE-75" value="" style="endArrow=classic;html=1;exitX=0;exitY=0;exitDx=40;exitDy=40;exitPerimeter=0;fillColor=#dae8fc;strokeColor=#6c8ebf;strokeWidth=2;" edge="1" parent="1">
          <mxGeometry width="50" height="50" relative="1" as="geometry">
            <mxPoint x="600" y="600" as="sourcePoint" />
            <mxPoint x="720" y="720" as="targetPoint" />
          </mxGeometry>
        </mxCell>
        <mxCell id="ug50JPKoQ96zgBhktdCE-76" value="" style="endArrow=classic;html=1;exitX=0;exitY=0;exitDx=40;exitDy=40;exitPerimeter=0;fillColor=#dae8fc;strokeColor=#6c8ebf;strokeWidth=2;" edge="1" parent="1">
          <mxGeometry width="50" height="50" relative="1" as="geometry">
            <mxPoint x="400" y="1000" as="sourcePoint" />
            <mxPoint x="520" y="1120" as="targetPoint" />
          </mxGeometry>
        </mxCell>
        <mxCell id="ug50JPKoQ96zgBhktdCE-77" value="" style="endArrow=classic;html=1;fillColor=#f8cecc;strokeColor=#b85450;strokeWidth=2;" edge="1" parent="1">
          <mxGeometry width="50" height="50" relative="1" as="geometry">
            <mxPoint x="320" y="1000" as="sourcePoint" />
            <mxPoint x="440" y="880" as="targetPoint" />
          </mxGeometry>
        </mxCell>
        <mxCell id="ug50JPKoQ96zgBhktdCE-78" value="A" style="ellipse;whiteSpace=wrap;html=1;aspect=fixed;fontStyle=1;fillColor=#f5f5f5;fontColor=#333333;strokeColor=#666666;" vertex="1" parent="1">
          <mxGeometry x="191" y="100" width="20" height="20" as="geometry" />
        </mxCell>
        <mxCell id="ug50JPKoQ96zgBhktdCE-80" value="B" style="ellipse;whiteSpace=wrap;html=1;aspect=fixed;fontStyle=1;fillColor=#f5f5f5;fontColor=#333333;strokeColor=#666666;" vertex="1" parent="1">
          <mxGeometry x="311" y="220" width="20" height="20" as="geometry" />
        </mxCell>
        <mxCell id="ug50JPKoQ96zgBhktdCE-81" value="C" style="ellipse;whiteSpace=wrap;html=1;aspect=fixed;fontStyle=1;fillColor=#f5f5f5;fontColor=#333333;strokeColor=#666666;" vertex="1" parent="1">
          <mxGeometry x="431" y="280" width="20" height="20" as="geometry" />
        </mxCell>
        <mxCell id="ug50JPKoQ96zgBhktdCE-82" value="D" style="ellipse;whiteSpace=wrap;html=1;aspect=fixed;fontStyle=1;fillColor=#f5f5f5;fontColor=#333333;strokeColor=#666666;" vertex="1" parent="1">
          <mxGeometry x="431" y="100" width="20" height="20" as="geometry" />
        </mxCell>
        <mxCell id="ug50JPKoQ96zgBhktdCE-83" value="A" style="ellipse;whiteSpace=wrap;html=1;aspect=fixed;fontStyle=1;fillColor=#f5f5f5;fontColor=#333333;strokeColor=#666666;" vertex="1" parent="1">
          <mxGeometry x="191" y="500" width="20" height="20" as="geometry" />
        </mxCell>
        <mxCell id="ug50JPKoQ96zgBhktdCE-84" value="B" style="ellipse;whiteSpace=wrap;html=1;aspect=fixed;fontStyle=1;fillColor=#f5f5f5;fontColor=#333333;strokeColor=#666666;" vertex="1" parent="1">
          <mxGeometry x="426" y="680" width="20" height="20" as="geometry" />
        </mxCell>
        <mxCell id="ug50JPKoQ96zgBhktdCE-86" value="C" style="ellipse;whiteSpace=wrap;html=1;aspect=fixed;fontStyle=1;fillColor=#f5f5f5;fontColor=#333333;strokeColor=#666666;" vertex="1" parent="1">
          <mxGeometry x="470" y="680" width="20" height="20" as="geometry" />
        </mxCell>
        <mxCell id="ug50JPKoQ96zgBhktdCE-87" value="D" style="ellipse;whiteSpace=wrap;html=1;aspect=fixed;fontStyle=1;fillColor=#f5f5f5;fontColor=#333333;strokeColor=#666666;" vertex="1" parent="1">
          <mxGeometry x="710" y="500" width="20" height="20" as="geometry" />
        </mxCell>
        <mxCell id="ug50JPKoQ96zgBhktdCE-88" value="A" style="ellipse;whiteSpace=wrap;html=1;aspect=fixed;fontStyle=1;fillColor=#f5f5f5;fontColor=#333333;strokeColor=#666666;" vertex="1" parent="1">
          <mxGeometry x="191" y="900" width="20" height="20" as="geometry" />
        </mxCell>
        <mxCell id="ug50JPKoQ96zgBhktdCE-89" value="B" style="ellipse;whiteSpace=wrap;html=1;aspect=fixed;fontStyle=1;fillColor=#f5f5f5;fontColor=#333333;strokeColor=#666666;" vertex="1" parent="1">
          <mxGeometry x="271" y="1080" width="20" height="20" as="geometry" />
        </mxCell>
        <mxCell id="ug50JPKoQ96zgBhktdCE-90" value="C" style="ellipse;whiteSpace=wrap;html=1;aspect=fixed;fontStyle=1;fillColor=#f5f5f5;fontColor=#333333;strokeColor=#666666;" vertex="1" parent="1">
          <mxGeometry x="431" y="1080" width="20" height="20" as="geometry" />
        </mxCell>
        <mxCell id="ug50JPKoQ96zgBhktdCE-91" value="D" style="ellipse;whiteSpace=wrap;html=1;aspect=fixed;fontStyle=1;fillColor=#f5f5f5;fontColor=#333333;strokeColor=#666666;" vertex="1" parent="1">
          <mxGeometry x="511" y="900" width="20" height="20" as="geometry" />
        </mxCell>
      </root>
    </mxGraphModel>
  </diagram>
</mxfile>
